<?xml version="1.0" encoding="iso-8859-1"?>
<!-- Generator: Adobe Illustrator 19.0.0, SVG Export Plug-In . SVG Version: 6.00 Build 0)  -->
<svg version="1.1" id="Capa_1" xmlns="http://www.w3.org/2000/svg" xmlns:xlink="http://www.w3.org/1999/xlink" x="0px" y="0px"
	 viewBox="0 0 512.002 512.002" style="enable-background:new 0 0 512.002 512.002;" xml:space="preserve">
<g>
	<g>
		<path d="M501.574,137.373c-7.308-27.018-28.647-48.318-55.624-55.571c-38.416-10.498-174.554-10.801-189.951-10.801
			c-15.386,0-151.432,0.291-189.761,10.362c-0.069,0.019-0.137,0.037-0.205,0.056c-26.581,7.286-48.414,29.273-55.624,56.011
			c-0.009,0.037-0.019,0.073-0.029,0.11C0.118,176.48,0,252.772,0,256.001c0,3.245,0.118,79.931,10.41,118.571
			c7.292,27.046,28.642,48.37,55.69,55.642c38.77,10.484,174.545,10.787,189.899,10.787c15.387,0,151.433-0.291,189.762-10.364
			c0.036-0.009,0.073-0.019,0.109-0.029c27.077-7.28,48.428-28.603,55.72-55.648c0.009-0.037,0.019-0.074,0.029-0.11
			c10.207-38.731,10.379-114.414,10.38-118.402C512.017,252.622,512.235,176.3,501.574,137.373z M471.997,256.39
			c0,20.538-1.625,79.986-9.044,108.21c-3.603,13.288-14.101,23.767-27.417,27.367c-28.33,7.408-139.186,9.033-179.537,9.034
			c-40.246,0-150.942-1.688-179.485-9.408c-13.359-3.591-23.889-14.104-27.468-27.375C40.116,330.69,40,256.742,40,256.001
			c0-20.537,1.625-79.973,9.042-108.201c3.591-13.255,14.362-24.145,27.468-27.778c28.415-7.396,139.162-9.02,179.489-9.021
			c40.347,0,151.229,1.686,179.485,9.408c13.358,3.591,23.889,14.104,27.483,27.435c0.007,0.026,0.015,0.053,0.022,0.079
			C470.675,175.967,472.098,235.658,471.997,256.39z"/>
	</g>
</g>
<g>
	<g>
		<path d="M190.084,150.844v210.313L372.057,256L190.084,150.844z M230.084,220.157l62.027,35.844l-62.027,35.844V220.157z"/>
	</g>
</g>
<g>
</g>
<g>
</g>
<g>
</g>
<g>
</g>
<g>
</g>
<g>
</g>
<g>
</g>
<g>
</g>
<g>
</g>
<g>
</g>
<g>
</g>
<g>
</g>
<g>
</g>
<g>
</g>
<g>
</g>
</svg>
