<svg id="Capa_1" enable-background="new 0 0 512 512" height="512" viewBox="0 0 512 512" width="512" xmlns="http://www.w3.org/2000/svg"><g><path d="m442.596 201.632-186.391-175.821-.205.194-186.191 174.442-26.065 39.553h16.256v257h196 196v-257h15.234z" fill="#f3f5f9"/><path d="m452 240h15.234l-24.638-38.368-186.391-175.821-.205.194v470.995h196z" fill="#e1e6f0"/><path d="m151 210v210h211v-210z" fill="#e1e6f0"/><path d="m256 210h106v210h-106z" fill="#cfd7e6"/><path d="m422 180-60-60v-60h60z" fill="#576073"/><path d="m255.78 0-255.78 240h.007l255.781-239.993z" fill="#f3f5f9"/><path d="m90 30h-30v-30h-30v30h-30v30h30v30h30v-30h30z" fill="#f3f5f9"/><path d="m512 30h-30v-30h-30v30h-30v30h30v30h30v-30h30z" fill="#e1e6f0"/><path d="m181 240h60v60h-60z" fill="#80c0ff"/><path d="m271 240h61v60h-61z" fill="#69f"/><path d="m181 330h60v60h-60z" fill="#80c0ff"/><path d="m271 330h61v60h-61z" fill="#69f"/><path d="m256 .192-.205-.192-.007.007-255.781 239.993h43.737l212.256-198.995.205-.194 211.029 199.189h44.766z" fill="#ff7f40"/><path d="m467.234 240h44.766l-256-239.808v40.813l.205-.194z" fill="#f25a3c"/><g><path d="m0 482h512v30h-512z" fill="#576073"/></g><path d="m256 482h256v30h-256z" fill="#434b59"/></g></svg>