<svg height="512pt" viewBox="0 -76 512 512" width="512pt" xmlns="http://www.w3.org/2000/svg"><path d="m437 0h-362c-41.355469 0-75 33.644531-75 75v210c0 41.355469 33.644531 75 75 75h362c41.355469 0 75-33.644531 75-75v-210c0-41.355469-33.644531-75-75-75zm45 285c0 24.8125-20.1875 45-45 45h-362c-24.8125 0-45-20.1875-45-45v-210c0-24.8125 20.1875-45 45-45h362c24.8125 0 45 20.1875 45 45zm0 0"/><path d="m338.949219 167.28125-120-75c-4.625-2.890625-10.453125-3.042969-15.222657-.402344-4.769531 2.644532-7.726562 7.667969-7.726562 13.121094v150c0 5.453125 2.957031 10.476562 7.726562 13.121094 4.722657 2.617187 10.554688 2.515625 15.222657-.402344l120-75c4.386719-2.738281 7.050781-7.546875 7.050781-12.71875s-2.664062-9.980469-7.050781-12.71875zm-112.949219 60.65625v-95.875l76.699219 47.9375zm0 0"/></svg>